<?xml version="1.0" standalone="no"?>
<!DOCTYPE svg PUBLIC "-//W3C//DTD SVG 20010904//EN"
 "http://www.w3.org/TR/2001/REC-SVG-20010904/DTD/svg10.dtd">
<svg version="1.0" xmlns="http://www.w3.org/2000/svg"
 width="532.000000pt" height="421.000000pt" viewBox="0 0 532.000000 421.000000"
 preserveAspectRatio="xMidYMid meet">

<g transform="translate(0.000000,421.000000) scale(0.100000,-0.100000)"
fill="#000000" stroke="none">
<path d="M2498 3489 c-9 -5 -36 -36 -59 -69 -30 -43 -48 -60 -64 -60 -12 0
-53 20 -91 45 -79 52 -108 62 -129 45 -26 -21 5 -101 89 -227 l41 -63 228 0
227 0 56 85 c62 96 99 177 91 200 -12 31 -61 17 -122 -35 -33 -27 -67 -50 -78
-50 -10 0 -49 32 -86 70 -70 73 -75 76 -103 59z"/>
<path d="M2206 3030 c-205 -215 -325 -439 -326 -607 0 -164 145 -313 357 -367
125 -33 343 -39 495 -15 46 7 77 7 105 0 21 -6 61 -11 89 -11 37 0 65 -8 100
-27 97 -55 288 -40 347 27 15 16 34 30 42 30 19 0 94 37 96 48 1 4 3 172 4
374 2 331 0 369 -14 383 -68 61 -295 60 -363 -2 -16 -14 -18 -29 -15 -98 l4
-82 -47 20 c-38 16 -53 31 -89 89 -37 60 -130 181 -223 291 l-24 27 -231 0
-230 0 -77 -80z m1206 -160 c20 -6 47 -19 60 -29 22 -18 22 -20 5 -39 -51 -56
-263 -57 -314 0 -15 17 -15 20 -1 34 39 39 168 56 250 34z m-854 -66 c3 -29 7
-32 48 -39 25 -3 47 -12 50 -19 9 -23 -12 -81 -27 -77 -93 25 -149 18 -149
-19 0 -16 16 -29 73 -55 90 -41 127 -80 127 -137 0 -54 -25 -93 -77 -120 -37
-20 -43 -27 -43 -55 0 -32 -2 -33 -40 -33 -39 0 -40 1 -40 35 0 30 -3 35 -24
35 -19 0 -84 17 -94 25 -2 2 2 22 8 45 9 33 15 40 28 35 42 -16 113 -24 137
-15 57 22 37 65 -43 95 -68 25 -110 60 -121 100 -17 64 14 123 79 149 34 13
40 20 40 44 0 36 8 44 40 40 20 -2 26 -9 28 -34z m762 -73 c47 0 102 6 123 13
43 16 58 4 32 -24 -48 -53 -262 -53 -311 1 -25 28 -9 39 33 23 21 -7 76 -13
123 -13z m-252 -62 c47 -20 53 -41 18 -64 -64 -42 -216 -43 -277 -2 -38 26
-40 36 -8 59 52 38 187 42 267 7z m252 -14 c52 0 111 3 130 5 49 7 46 -17 -5
-44 -84 -44 -283 -18 -293 38 -4 17 0 18 35 10 21 -5 81 -9 133 -9z m-106 -80
c63 -19 149 -19 212 0 56 17 78 7 51 -23 -51 -56 -263 -56 -313 -1 -9 10 -13
23 -9 28 8 13 0 14 59 -4z m-380 -20 c61 -19 146 -19 215 -1 46 12 53 12 58
-2 14 -36 -77 -66 -187 -60 -86 4 -134 23 -138 56 -2 12 -2 22 0 22 2 0 25 -7
52 -15z m652 -67 c10 -16 -30 -46 -71 -54 -24 -4 -38 -1 -54 12 -30 26 -26 34
17 35 20 0 46 4 57 9 28 12 43 12 51 -2z m-591 -29 c32 -6 70 -7 83 -4 17 4
22 2 18 -7 -3 -7 -9 -21 -13 -32 -5 -16 -13 -18 -70 -13 -79 8 -133 32 -133
59 0 17 4 19 28 13 15 -4 54 -11 87 -16z m413 -20 c31 -13 43 -24 40 -36 -4
-25 -62 -51 -128 -59 -106 -12 -231 33 -199 72 44 53 190 65 287 23z m177 -30
c4 -5 0 -18 -9 -28 -18 -20 -91 -45 -106 -36 -16 10 20 55 44 55 11 0 28 5 36
10 19 13 27 12 35 -1z m-651 -24 c27 -8 72 -15 101 -15 60 0 68 -5 54 -32 -10
-18 -19 -20 -77 -16 -80 5 -126 24 -130 56 -2 12 -2 22 0 22 2 0 25 -7 52 -15z
m313 -71 c36 -4 88 -2 124 5 64 13 84 7 74 -21 -10 -25 -56 -41 -138 -46 -86
-5 -156 10 -182 39 -24 25 -9 42 29 35 17 -3 59 -9 93 -12z m339 4 c4 -6 -3
-19 -15 -29 -23 -19 -88 -36 -97 -26 -12 11 16 42 48 53 43 16 55 17 64 2z
m-578 -31 c63 -8 81 -14 77 -25 -3 -7 -5 -18 -5 -24 0 -16 -120 -4 -163 17
-25 11 -37 24 -37 37 0 16 4 19 23 13 12 -3 59 -12 105 -18z m271 -69 c58 0
99 5 125 16 43 18 56 14 40 -12 -14 -22 -98 -51 -151 -52 -63 0 -138 19 -162
41 -31 29 -17 40 26 23 23 -10 68 -16 122 -16z m306 21 c17 -26 -85 -83 -108
-60 -14 14 12 51 36 51 12 0 29 5 37 10 19 13 27 12 35 -1z m-635 -30 c19 -5
59 -9 88 -9 55 0 67 -14 37 -43 -16 -16 -70 -14 -135 5 -45 14 -60 26 -60 50
0 15 4 18 18 13 9 -4 33 -11 52 -16z m240 -60 c53 -13 151 -11 204 5 42 13 48
13 53 -1 26 -66 -247 -88 -319 -26 -20 18 -12 47 11 37 9 -3 32 -10 51 -15z
m396 -1 c10 -16 -30 -46 -72 -54 -40 -7 -48 -3 -40 24 4 11 22 23 44 29 51 15
60 15 68 1z m-611 -29 c22 -4 59 -8 82 -9 41 0 41 0 30 -26 -11 -25 -15 -26
-73 -21 -75 6 -134 32 -134 59 0 17 4 19 28 13 15 -4 45 -11 67 -16z m248 -60
c53 -9 102 -5 200 17 25 6 28 4 25 -12 -5 -27 -70 -56 -142 -61 -74 -6 -170
18 -185 46 -13 23 -3 34 24 26 11 -3 46 -10 78 -16z"/>
<path d="M1240 1490 l0 -260 40 0 40 0 0 105 0 105 70 0 70 0 0 40 0 39 -67 3
-68 3 -3 73 -3 72 126 0 125 0 0 40 0 40 -165 0 -165 0 0 -260z"/>
<path d="M2608 1640 l4 -112 -24 9 c-43 15 -115 9 -145 -13 -45 -32 -77 -105
-69 -158 14 -94 84 -153 166 -140 25 3 69 6 98 5 l52 -1 -2 257 -3 258 -40 3
-40 3 3 -111z m-17 -180 c16 -9 19 -22 19 -81 0 -78 -5 -83 -72 -83 -54 -1
-83 31 -83 88 0 58 25 86 77 86 22 0 48 -5 59 -10z"/>
<path d="M2780 1710 l0 -40 80 0 80 0 2 -217 3 -218 37 -3 38 -3 2 218 3 218
83 3 82 3 0 39 0 40 -205 0 -205 0 0 -40z"/>
<path d="M3980 1491 l0 -261 40 0 40 0 0 73 c0 41 3 77 6 80 4 4 41 -30 83
-74 74 -79 77 -81 118 -77 l42 3 -74 81 -75 82 60 67 c33 37 57 71 54 76 -3 5
-20 9 -39 9 -29 0 -42 -10 -96 -70 -34 -39 -66 -67 -70 -63 -5 5 -10 80 -11
168 l-3 160 -37 3 -38 3 0 -260z"/>
<path d="M1591 1454 c-2 -153 20 -201 102 -226 33 -10 47 -9 86 5 29 10 49 13
55 7 6 -6 25 -10 44 -10 l33 0 -3 158 -3 157 -37 3 -38 3 0 -109 c0 -105 -1
-110 -24 -125 -40 -27 -74 -31 -101 -13 -24 16 -25 21 -25 116 0 110 -9 130
-60 130 l-28 0 -1 -96z"/>
<path d="M1997 1543 c-4 -3 -7 -75 -7 -160 l0 -153 40 0 40 0 0 110 0 109 30
16 c39 20 83 19 103 -3 12 -13 17 -43 19 -122 l3 -105 40 -3 40 -3 -3 118 c-4
130 -11 151 -65 183 -39 24 -87 25 -128 4 -28 -14 -32 -14 -48 0 -18 16 -52
21 -64 9z"/>
<path d="M3279 1541 c-14 -5 -35 -13 -47 -20 -19 -10 -20 -15 -10 -39 7 -15
12 -28 13 -29 0 -1 20 5 45 13 59 20 115 15 115 -10 0 -16 -11 -22 -55 -30
-104 -21 -159 -73 -145 -137 14 -61 105 -87 175 -50 35 18 41 19 46 6 4 -9 19
-15 35 -15 l29 0 0 115 c0 130 -11 165 -60 190 -31 16 -98 19 -141 6z m121
-202 c0 -25 -6 -32 -35 -45 -46 -19 -72 -18 -84 5 -12 22 11 47 55 61 54 16
64 13 64 -21z"/>
<path d="M3580 1390 l0 -160 40 0 40 0 0 110 0 109 30 16 c36 19 70 19 96 1
16 -12 20 -30 24 -123 l5 -108 38 -3 37 -3 0 113 c0 96 -3 118 -20 146 -35 57
-111 77 -176 46 -31 -15 -35 -15 -49 0 -9 9 -27 16 -41 16 l-24 0 0 -160z"/>
<path d="M881 1050 c-1 -22 15 -44 28 -36 6 4 11 1 11 -6 1 -7 7 -2 15 12 19
33 19 49 0 24 -10 -13 -14 -14 -15 -5 0 10 -3 11 -14 2 -11 -10 -15 -8 -19 6
-3 12 -5 13 -6 3z"/>
<path d="M1080 1030 c0 -26 2 -29 14 -18 10 9 11 15 2 21 -8 5 -7 10 4 17 13
8 12 10 -2 10 -13 0 -18 -8 -18 -30z"/>
<path d="M1372 1028 c-2 -34 1 -38 21 -37 15 1 17 3 5 6 -10 2 -18 17 -21 36
-4 31 -4 31 -5 -5z"/>
<path d="M1531 1028 c-1 -33 2 -38 21 -38 19 0 20 1 6 13 -9 6 -19 23 -21 37
-3 18 -5 14 -6 -12z"/>
<path d="M1830 1033 c0 -34 13 -44 23 -19 3 8 -1 22 -8 33 -13 17 -14 16 -15
-14z"/>
<path d="M2033 1025 c0 -22 2 -30 4 -17 2 12 2 30 0 40 -3 9 -5 -1 -4 -23z"/>
<path d="M2161 1024 c1 -23 3 -30 6 -16 5 26 11 27 35 5 17 -15 18 -14 17 18
-1 19 -3 26 -6 17 -6 -22 -12 -22 -35 -1 -17 15 -18 14 -17 -23z"/>
<path d="M2340 1030 c0 -27 3 -31 23 -28 16 2 22 10 22 28 0 18 -6 26 -22 28
-20 3 -23 -1 -23 -28z m38 -3 c2 -10 -3 -17 -12 -17 -10 0 -16 9 -16 21 0 24
23 21 28 -4z"/>
<path d="M2666 1034 c11 -48 18 -47 27 1 4 17 4 24 1 17 -5 -10 -9 -10 -21 -1
-12 11 -13 8 -7 -17z"/>
<path d="M2827 1053 c-13 -13 -7 -42 12 -52 27 -15 56 9 47 37 -7 21 -44 31
-59 15z m49 -14 c3 -6 0 -17 -7 -25 -18 -17 -44 -2 -36 20 7 18 33 21 43 5z"/>
<path d="M3011 1039 c-1 -36 20 -53 43 -36 12 9 16 22 13 38 -4 23 -4 23 -6
-3 0 -16 -5 -28 -11 -28 -5 0 -13 -1 -17 -2 -4 -2 -11 11 -14 27 -6 29 -7 29
-8 4z"/>
<path d="M3190 1023 c0 -26 3 -34 9 -24 5 8 14 10 22 6 8 -5 11 -5 7 0 -4 4
-3 14 3 21 14 17 3 34 -22 34 -15 0 -19 -7 -19 -37z m30 17 c0 -5 -4 -10 -10
-10 -5 0 -10 5 -10 10 0 6 5 10 10 10 6 0 10 -4 10 -10z"/>
<path d="M3500 1031 c0 -31 18 -45 40 -31 11 7 11 14 2 34 -16 36 -42 34 -42
-3z m38 -12 c-2 -6 -8 -10 -13 -10 -5 0 -11 4 -13 10 -2 6 4 11 13 11 9 0 15
-5 13 -11z"/>
<path d="M3671 1039 c-1 -35 23 -56 44 -39 8 7 14 24 14 39 -1 25 -2 25 -8 -4
-3 -17 -13 -30 -21 -30 -8 0 -18 13 -21 30 -6 29 -7 29 -8 4z"/>
<path d="M3854 1049 c-4 -7 1 -16 12 -22 18 -10 18 -11 -1 -17 -17 -6 -17 -7
-1 -13 25 -10 33 21 10 39 -17 14 -17 15 -1 10 9 -3 17 -1 17 4 0 14 -27 12
-36 -1z"/>
<path d="M4010 1030 c0 -16 5 -30 10 -30 6 0 10 14 10 30 0 17 -4 30 -10 30
-5 0 -10 -13 -10 -30z"/>
<path d="M4151 1024 c1 -31 2 -34 8 -15 6 21 8 22 20 7 20 -24 31 -19 31 14 0
17 -4 30 -10 30 -5 0 -10 -7 -10 -17 0 -14 -2 -14 -20 2 -20 18 -20 17 -19
-21z"/>
<path d="M4330 1025 c0 -30 3 -35 23 -34 16 1 18 2 5 6 -21 5 -23 19 -5 26 10
4 10 6 0 6 -19 1 -16 19 5 24 13 4 11 5 -5 6 -20 1 -23 -4 -23 -34z"/>
<path d="M4496 1051 c-3 -5 1 -14 9 -21 18 -15 20 -34 3 -24 -7 4 -8 3 -4 -5
4 -6 12 -9 17 -6 12 8 12 35 -1 35 -5 0 -10 5 -10 11 0 5 5 7 10 4 6 -3 10 -1
10 4 0 13 -27 15 -34 2z"/>
<path d="M4660 1045 c0 -7 8 -19 18 -24 16 -10 16 -10 -1 -11 -10 0 -15 -5
-12 -10 5 -8 12 -7 22 1 13 11 13 15 -4 26 -15 12 -16 15 -3 23 13 8 12 10 -2
10 -10 0 -18 -7 -18 -15z"/>
<path d="M1887 1038 c-2 -7 -1 -22 4 -33 6 -16 8 -14 8 13 1 33 -4 41 -12 20z"/>
<path d="M1860 1010 c0 -5 5 -10 10 -10 6 0 10 5 10 10 0 6 -4 10 -10 10 -5 0
-10 -4 -10 -10z"/>
</g>
</svg>
